Coordinates
nRows=12
nColumns=24

# SIMM Motion File Header:
name Coordinates
datacolumns 24
datarows 12
otherdata 1
range 1.16199999999999990000 1.17300000000000000000

Units are S.I. units (second, meters, Newtons, ...)
Angles are in degrees.

endheader
time	pelvis_tx	pelvis_ty	pelvis_tz	pelvis_tilt	pelvis_list	pelvis_rotation	hip_flexion_r	hip_adduction_r	hip_rotation_r	knee_angle_r	ankle_angle_r	subtalar_angle_r	mtp_angle_r	hip_flexion_l	hip_adduction_l	hip_rotation_l	knee_angle_l	ankle_angle_l	subtalar_angle_l	mtp_angle_l	lumbar_extension	lumbar_bending	lumbar_rotation
      1.16199999999999990000	      0.59894100597833821000	      0.81744569813824020000	     -0.27576859229205253000	     -5.79816546637882710000	     -1.33412096777888770000	      1.88264157305011960000	     23.28455496514715500000	      2.77510265067951250000	      6.50542326970715120000	     -3.79278008236540430000	    -11.61344880520674600000	      0.00000000000001229562	     -0.00000000000000432330	     -8.83302179785554210000	      0.97820117204171031000	     -0.86411467022730870000	    -11.24893334444491300000	      4.60852716708215570000	     -0.00000000000014125123	      0.00000000000076930979	     10.80509607272950800000	      0.42564219910773859000	      7.50570442367931360000
      1.16300000000000000000	      0.59958027859812191000	      0.81752272329666109000	     -0.27567069492945684000	     -5.79042428879972610000	     -1.35310825961702540000	      1.88143996937543870000	     23.20877481606250800000	      2.80250978852742880000	      6.47062629850578560000	     -3.75624578421348420000	    -11.59790110051146600000	      0.00000000000001229468	     -0.00000000000000432467	     -8.82888072997111100000	      0.94285937835577271000	     -0.87152233736211016000	    -11.35082014921537000000	      4.54663879845502270000	     -0.00000000000014143533	      0.00000000000077086146	     10.80215570284737000000	      0.45569042464152837000	      7.49143464734303690000
      1.16399999999999990000	      0.60021935043168451000	      0.81759996172268390000	     -0.27557259636001274000	     -5.78268191004678920000	     -1.37215921037091590000	      1.88021612745801560000	     23.13315363643015100000	      2.83008994206049370000	      6.43533610206377560000	     -3.72010353019296900000	    -11.58148545223722400000	      0.00000000000001229418	     -0.00000000000000432040	     -8.82426006836142740000	      0.90739288662200934000	     -0.87890422812246671000	    -11.45346218595417300000	      4.48412190868381000000	     -0.00000000000014162950	      0.00000000000077245177	     10.79922294884711500000	      0.48577084572921270000	      7.47732227551053350000
      1.16500000000000000000	      0.60085821815096363000	      0.81767740744031570000	     -0.27547429277925295000	     -5.77493780894592130000	     -1.39126394707702810000	      1.87897280355133620000	     23.05768957220284300000	      2.85783173522372810000	      6.39957811289361440000	     -3.68434991439142980000	    -11.56422338515436500000	      0.00000000000001228927	     -0.00000000000000429488	     -8.81915749855752470000	      0.87180908821821512000	     -0.88625972703955691000	    -11.55685990079685300000	      4.42097150412958760000	     -0.00000000000014184100	      0.00000000000077408718	     10.79629770891450500000	      0.51586759201005761000	      7.46337564533998600000
      1.16599999999999990000	      0.60149687863746182000	      0.81775505409939708000	     -0.27537578078788472000	     -5.76719138613529390000	     -1.41041244813243630000	      1.87771289568733970000	     22.98238043570065900000	      2.88572353097111380000	      6.36337791148192270000	     -3.64898100497996580000	    -11.54613684999968200000	      0.00000000000001228334	     -0.00000000000000426477	     -8.81357079096519770000	      0.83611546723641683000	     -0.89358794940957409000	    -11.66101374150618000000	      4.35718241313217720000	     -0.00000000000014206669	      0.00000000000077576719	     10.79337978366530300000	      0.54596466733331095000	      7.44960279181491190000
      1.16700000000000000000	      0.60213532896438560000	      0.81783289498323419000	     -0.27527705737449332000	     -5.75944196784494980000	     -1.42959455443094900000	      1.87643943665839720000	     22.90722372345730300000	      2.91375344712960960000	      6.32676118535489170000	     -3.61399236208724070000	    -11.52724819988484100000	      0.00000000000001227614	     -0.00000000000000422927	     -8.80749780044335400000	      0.80031958985501339000	     -0.90088773867326433000	    -11.76592415344598700000	      4.29274927324591800000	     -0.00000000000014229194	      0.00000000000077744952	     10.79046887807133400000	      0.57604596524448370000	      7.43601143357771300000
      1.16799999999999990000	      0.60277356637859902000	      0.81791092301646806000	     -0.27517811989688751000	     -5.75168880974022300000	     -1.44879998082484750000	      1.87515558661856740000	     22.83221663472936300000	      2.94190937311016490000	      6.28975368800959610000	     -3.57937905753510680000	    -11.50758016578305200000	      0.00000000000001226834	     -0.00000000000000419841	     -8.80093646580738210000	      0.76442909317661956000	     -0.90815766436221601000	    -11.87159157533863900000	      4.22766651200556960000	     -0.00000000000014251577	      0.00000000000077912042	     10.78756460340404600000	      0.60609528415616154000	      7.42260896356896800000
      1.16900000000000000000	      0.60341158828327401000	      0.81798913077527424000	     -0.27507896605898152000	     -5.74393110102488970000	     -1.46801832811440970000	      1.87386462423111100000	     22.75735609203797300000	      2.97017898723160600000	      6.25238119820023290000	     -3.54513569784538210000	    -11.48715583046000800000	      0.00000000000001226307	     -0.00000000000000418055	     -8.79388480872191460000	      0.72845167344654227000	     -0.91539602357753580000	    -11.97801643463484000000	      4.16192832606090500000	     -0.00000000000014274156	      0.00000000000078079258	     10.78466647953634100000	      0.63609634116737979000	      7.40940245330924530000
      1.16999999999999990000	      0.60404939222270848000	      0.81806751050079929000	     -0.27497959388362941000	     -5.73616796876253420000	     -1.48723909534871850000	      1.87256993687071780000	     22.68263876319317500000	      2.99854977349252440000	      6.21466948020655700000	     -3.51125644860488340000	    -11.46599860047524500000	      0.00000000000001225691	     -0.00000000000000416532	     -8.78634093197774570000	      0.69239507450045990000	     -0.92260084432971112000	    -12.08519914255223800000	      4.09552867444549930000	     -0.00000000000014296982	      0.00000000000078248672	     10.78177393780947400000	      0.66603278483195605000	      7.39639866464478590000
      1.17100000000000000000	      0.60468697586795706000	      0.81814605411350416000	     -0.27488000168417454000	     -5.72839848217429190000	     -1.50645169232584770000	      1.87127501077774450000	     22.60806108351460600000	      3.02700903867002640000	      6.17664424391684100000	     -3.47773505956863050000	    -11.44413217765442100000	      0.00000000000001224714	     -0.00000000000000414127	     -8.77830301775214040000	      0.65626707609798840000	     -0.92976988858283560000	    -12.19314008895707600000	      4.02846126784390000000	     -0.00000000000014320130	      0.00000000000078418320	     10.77888632396850700000	      0.69588820778398797000	      7.38360406246797220000
      1.17199999999999990000	      0.60532433700253985000	      0.81822475322769950000	     -0.27478018803582449000	     -5.72062165691988160000	     -1.52564545211698110000	      1.86998342123272380000	     22.53361927801406500000	      3.05554392952725880000	      6.13833110477740900000	     -3.44456488986991300000	    -11.42158053066290600000	      0.00000000000001223789	     -0.00000000000000411575	     -8.76976932590420330000	      0.62007548222370246000	     -0.93690065525484512000	    -12.30183963724372400000	      3.96071955541482850000	     -0.00000000000014345835	      0.00000000000078597451	     10.77600290106015300000	      0.72564615935994192000	      7.37102482743895490000
      1.17300000000000000000	      0.60596147350814877000	      0.81830359916620143000	     -0.27468015174699129000	     -5.71283645938340530000	     -1.54480964359129550000	      1.86869882273781900000	     22.45930938356402600000	      3.08414145003268250000	      6.09975554374186670000	     -3.41173893324676180000	    -11.39836786658298200000	      0.00000000000001223111	     -0.00000000000000409015	     -8.76073819228459880000	      0.58382810940077379000	     -0.94399038321928785000	    -12.41129811923200800000	      3.89229671159176730000	     -0.00000000000014374459	      0.00000000000078786789	     10.77312285230442000000	      0.75529015821936318000	      7.35866686873341270000
